<svg xmlns="http://www.w3.org/2000/svg" xmlns:xlink="http://www.w3.org/1999/xlink" width="1080" zoomAndPan="magnify" viewBox="0 0 810 809.999993" height="1080" preserveAspectRatio="xMidYMid meet" version="1.0"><defs><clipPath id="6b63a3c7dc"><path d="M 37.292969 16.820312 L 773 16.820312 L 773 752.570312 L 37.292969 752.570312 Z M 37.292969 16.820312 " clip-rule="nonzero"/></clipPath><clipPath id="62c243b030"><path d="M 184.085938 232 L 269 232 L 269 357 L 184.085938 357 Z M 184.085938 232 " clip-rule="nonzero"/></clipPath></defs><g clip-path="url(#6b63a3c7dc)"><path fill="#ffd6ca" d="M 772.691406 384.519531 C 772.691406 390.535156 772.542969 396.550781 772.25 402.5625 C 771.953125 408.570312 771.511719 414.570312 770.921875 420.558594 C 770.332031 426.546875 769.59375 432.519531 768.710938 438.472656 C 767.828125 444.425781 766.800781 450.351562 765.625 456.253906 C 764.453125 462.15625 763.132812 468.023438 761.671875 473.863281 C 760.210938 479.699219 758.605469 485.496094 756.859375 491.257812 C 755.109375 497.015625 753.222656 502.726562 751.195312 508.394531 C 749.167969 514.058594 747.003906 519.671875 744.703125 525.230469 C 742.398438 530.792969 739.960938 536.289062 737.386719 541.730469 C 734.816406 547.171875 732.109375 552.542969 729.273438 557.851562 C 726.4375 563.160156 723.472656 568.394531 720.378906 573.554688 C 717.285156 578.714844 714.066406 583.796875 710.722656 588.800781 C 707.378906 593.804688 703.914062 598.722656 700.332031 603.558594 C 696.746094 608.390625 693.042969 613.132812 689.226562 617.785156 C 685.410156 622.4375 681.480469 626.992188 677.4375 631.449219 C 673.398438 635.910156 669.25 640.265625 664.996094 644.523438 C 660.738281 648.777344 656.382812 652.925781 651.921875 656.964844 C 647.464844 661.007812 642.910156 664.9375 638.257812 668.753906 C 633.605469 672.570312 628.863281 676.273438 624.03125 679.859375 C 619.195312 683.441406 614.277344 686.90625 609.273438 690.25 C 604.269531 693.59375 599.1875 696.8125 594.027344 699.90625 C 588.867188 703 583.632812 705.964844 578.324219 708.800781 C 573.015625 711.636719 567.644531 714.34375 562.203125 716.914062 C 556.761719 719.488281 551.265625 721.925781 545.703125 724.230469 C 540.144531 726.53125 534.53125 728.695312 528.867188 730.722656 C 523.199219 732.75 517.488281 734.636719 511.730469 736.386719 C 505.96875 738.132812 500.171875 739.738281 494.335938 741.199219 C 488.496094 742.660156 482.628906 743.980469 476.726562 745.152344 C 470.824219 746.328125 464.898438 747.355469 458.945312 748.238281 C 452.992188 749.121094 447.019531 749.859375 441.03125 750.449219 C 435.042969 751.039062 429.042969 751.480469 423.035156 751.777344 C 417.023438 752.070312 411.007812 752.21875 404.992188 752.21875 C 398.972656 752.21875 392.960938 752.070312 386.949219 751.777344 C 380.9375 751.480469 374.941406 751.039062 368.949219 750.449219 C 362.960938 749.859375 356.992188 749.121094 351.039062 748.238281 C 345.085938 747.355469 339.160156 746.328125 333.257812 745.152344 C 327.355469 743.980469 321.484375 742.660156 315.648438 741.199219 C 309.8125 739.738281 304.011719 738.132812 298.253906 736.386719 C 292.496094 734.636719 286.785156 732.75 281.117188 730.722656 C 275.453125 728.695312 269.839844 726.53125 264.277344 724.230469 C 258.71875 721.925781 253.21875 719.488281 247.78125 716.914062 C 242.339844 714.34375 236.964844 711.636719 231.660156 708.800781 C 226.351562 705.964844 221.117188 703 215.957031 699.90625 C 210.792969 696.8125 205.710938 693.59375 200.707031 690.25 C 195.707031 686.90625 190.785156 683.441406 185.953125 679.859375 C 181.121094 676.273438 176.378906 672.570312 171.726562 668.753906 C 167.074219 664.9375 162.519531 661.007812 158.058594 656.964844 C 153.601562 652.925781 149.242188 648.777344 144.988281 644.523438 C 140.734375 640.265625 136.585938 635.910156 132.542969 631.449219 C 128.503906 626.992188 124.574219 622.4375 120.757812 617.785156 C 116.9375 613.132812 113.238281 608.390625 109.652344 603.558594 C 106.066406 598.722656 102.605469 593.804688 99.261719 588.800781 C 95.917969 583.796875 92.699219 578.714844 89.605469 573.554688 C 86.511719 568.394531 83.546875 563.160156 80.710938 557.851562 C 77.871094 552.542969 75.167969 547.171875 72.59375 541.730469 C 70.023438 536.289062 67.585938 530.792969 65.28125 525.230469 C 62.980469 519.671875 60.8125 514.058594 58.785156 508.394531 C 56.757812 502.726562 54.871094 497.015625 53.125 491.257812 C 51.378906 485.496094 49.773438 479.699219 48.3125 473.863281 C 46.847656 468.023438 45.53125 462.15625 44.355469 456.253906 C 43.183594 450.351562 42.15625 444.425781 41.273438 438.472656 C 40.390625 432.519531 39.652344 426.546875 39.0625 420.558594 C 38.472656 414.570312 38.03125 408.570312 37.734375 402.5625 C 37.441406 396.550781 37.292969 390.535156 37.292969 384.519531 C 37.292969 378.5 37.441406 372.488281 37.734375 366.476562 C 38.03125 360.464844 38.472656 354.46875 39.0625 348.476562 C 39.652344 342.488281 40.390625 336.519531 41.273438 330.566406 C 42.15625 324.613281 43.183594 318.6875 44.355469 312.785156 C 45.53125 306.882812 46.847656 301.011719 48.3125 295.175781 C 49.773438 289.339844 51.378906 283.539062 53.125 277.78125 C 54.871094 272.023438 56.757812 266.3125 58.785156 260.644531 C 60.8125 254.980469 62.980469 249.367188 65.28125 243.804688 C 67.585938 238.246094 70.023438 232.746094 72.59375 227.308594 C 75.167969 221.867188 77.871094 216.492188 80.710938 211.1875 C 83.546875 205.878906 86.511719 200.644531 89.605469 195.484375 C 92.699219 190.320312 95.917969 185.238281 99.261719 180.234375 C 102.605469 175.234375 106.066406 170.3125 109.652344 165.480469 C 113.238281 160.648438 116.9375 155.90625 120.757812 151.253906 C 124.574219 146.601562 128.503906 142.046875 132.542969 137.585938 C 136.585938 133.128906 140.734375 128.769531 144.988281 124.515625 C 149.242188 120.261719 153.601562 116.113281 158.058594 112.070312 C 162.519531 108.03125 167.074219 104.101562 171.726562 100.285156 C 176.378906 96.464844 181.121094 92.765625 185.953125 89.179688 C 190.785156 85.59375 195.707031 82.132812 200.707031 78.789062 C 205.710938 75.445312 210.792969 72.226562 215.957031 69.132812 C 221.117188 66.039062 226.351562 63.074219 231.660156 60.238281 C 236.964844 57.398438 242.339844 54.695312 247.78125 52.121094 C 253.21875 49.550781 258.71875 47.113281 264.277344 44.808594 C 269.839844 42.507812 275.453125 40.339844 281.117188 38.3125 C 286.785156 36.285156 292.496094 34.398438 298.253906 32.652344 C 304.011719 30.90625 309.8125 29.300781 315.648438 27.839844 C 321.484375 26.375 327.355469 25.058594 333.257812 23.882812 C 339.160156 22.710938 345.085938 21.683594 351.039062 20.800781 C 356.992188 19.917969 362.960938 19.179688 368.949219 18.589844 C 374.941406 18 380.9375 17.558594 386.949219 17.261719 C 392.960938 16.96875 398.972656 16.820312 404.992188 16.820312 C 411.007812 16.820312 417.023438 16.96875 423.035156 17.261719 C 429.042969 17.558594 435.042969 18 441.03125 18.589844 C 447.019531 19.179688 452.992188 19.917969 458.945312 20.800781 C 464.898438 21.683594 470.824219 22.710938 476.726562 23.882812 C 482.628906 25.058594 488.496094 26.375 494.335938 27.839844 C 500.171875 29.300781 505.96875 30.90625 511.730469 32.652344 C 517.488281 34.398438 523.199219 36.285156 528.867188 38.3125 C 534.53125 40.339844 540.144531 42.507812 545.703125 44.808594 C 551.265625 47.113281 556.761719 49.550781 562.203125 52.121094 C 567.644531 54.695312 573.015625 57.398438 578.324219 60.238281 C 583.632812 63.074219 588.867188 66.039062 594.027344 69.132812 C 599.1875 72.226562 604.269531 75.445312 609.273438 78.789062 C 614.277344 82.132812 619.195312 85.59375 624.03125 89.179688 C 628.863281 92.765625 633.605469 96.464844 638.257812 100.285156 C 642.910156 104.101562 647.464844 108.03125 651.921875 112.070312 C 656.382812 116.113281 660.738281 120.261719 664.996094 124.515625 C 669.25 128.769531 673.398438 133.128906 677.4375 137.585938 C 681.480469 142.046875 685.410156 146.601562 689.226562 151.253906 C 693.042969 155.90625 696.746094 160.648438 700.332031 165.480469 C 703.914062 170.3125 707.378906 175.234375 710.722656 180.234375 C 714.066406 185.238281 717.285156 190.320312 720.378906 195.484375 C 723.472656 200.644531 726.4375 205.878906 729.273438 211.1875 C 732.109375 216.492188 734.816406 221.867188 737.386719 227.308594 C 739.960938 232.746094 742.398438 238.246094 744.703125 243.804688 C 747.003906 249.367188 749.167969 254.980469 751.195312 260.644531 C 753.222656 266.3125 755.109375 272.023438 756.859375 277.78125 C 758.605469 283.539062 760.210938 289.339844 761.671875 295.175781 C 763.132812 301.011719 764.453125 306.882812 765.625 312.785156 C 766.800781 318.6875 767.828125 324.613281 768.710938 330.566406 C 769.59375 336.519531 770.332031 342.488281 770.921875 348.476562 C 771.511719 354.46875 771.953125 360.464844 772.25 366.476562 C 772.542969 372.488281 772.691406 378.5 772.691406 384.519531 Z M 772.691406 384.519531 " fill-opacity="1" fill-rule="nonzero"/></g><path fill="#cb9764" d="M 372.53125 197.609375 C 373.351562 204.464844 373.367188 221.949219 364.570312 222.496094 C 362.511719 222.546875 360.605469 221.839844 358.597656 220.957031 C 355.175781 219.394531 351.679688 217.445312 348.058594 216.105469 C 339.898438 212.449219 325.878906 212.289062 325.019531 200.988281 C 324.511719 189.140625 335.335938 177.066406 347.375 176.078125 C 360.6875 174.460938 371.136719 184.46875 372.511719 197.46875 L 372.53125 197.617188 Z M 372.53125 197.609375 " fill-opacity="1" fill-rule="nonzero"/><path fill="#754c29" d="M 364.417969 224.234375 C 361.957031 224.234375 359.769531 223.367188 357.902344 222.546875 C 356.679688 221.992188 355.464844 221.386719 354.292969 220.8125 C 352.0625 219.714844 349.757812 218.582031 347.460938 217.730469 C 347.425781 217.714844 347.382812 217.703125 347.347656 217.6875 C 345.363281 216.800781 342.96875 216.113281 340.433594 215.390625 C 333.121094 213.308594 324.019531 210.707031 323.289062 201.113281 C 322.742188 188.378906 334.378906 175.398438 347.238281 174.34375 C 353.527344 173.582031 359.730469 175.300781 364.636719 179.203125 C 369.976562 183.449219 373.476562 190.035156 374.242188 197.277344 L 374.253906 197.371094 C 374.253906 197.371094 374.253906 197.386719 374.253906 197.402344 C 374.339844 198.085938 376.191406 214.265625 370.386719 221.226562 C 368.847656 223.074219 366.921875 224.085938 364.671875 224.226562 C 364.589844 224.226562 364.5 224.226562 364.417969 224.226562 Z M 348.710938 214.496094 C 351.160156 215.40625 353.527344 216.570312 355.820312 217.695312 C 357.027344 218.292969 358.167969 218.855469 359.320312 219.375 C 361.324219 220.257812 362.902344 220.796875 364.527344 220.753906 C 365.742188 220.679688 366.804688 220.101562 367.726562 219.007812 C 371.332031 214.691406 371.546875 203.980469 370.8125 197.824219 L 370.789062 197.691406 C 370.117188 191.320312 367.082031 185.585938 362.472656 181.914062 C 358.242188 178.550781 353.097656 177.128906 347.585938 177.792969 C 336.371094 178.714844 326.28125 189.9375 326.753906 200.90625 C 327.296875 208.035156 334.140625 209.984375 341.382812 212.046875 C 344.015625 212.792969 346.507812 213.507812 348.710938 214.488281 Z M 348.710938 214.496094 " fill-opacity="1" fill-rule="nonzero"/><path fill="#cb9764" d="M 438.351562 210.058594 C 450.960938 212.585938 462.320312 225.226562 461.007812 238.40625 C 460.183594 248.304688 451.800781 255.605469 443.175781 259.726562 C 422.660156 269.980469 417.859375 260.78125 408.578125 244.035156 C 405.773438 239.121094 403.652344 233.386719 405.355469 227.765625 C 409.445312 215.035156 425.207031 207.042969 438.210938 210.027344 L 438.351562 210.054688 Z M 438.351562 210.058594 " fill-opacity="1" fill-rule="nonzero"/><path fill="#754c29" d="M 428.859375 265.71875 C 418.605469 265.71875 413.765625 256.984375 407.363281 245.445312 L 407.050781 244.882812 C 403.222656 238.183594 402.125 232.417969 403.6875 227.265625 C 407.988281 213.890625 424.296875 205.054688 438.601562 208.339844 L 438.699219 208.359375 C 445.253906 209.671875 451.648438 213.601562 456.238281 219.132812 C 461.089844 224.984375 463.402344 231.886719 462.738281 238.578125 C 461.660156 251.476562 449.226562 258.761719 443.925781 261.296875 C 437.78125 264.363281 432.902344 265.722656 428.867188 265.722656 Z M 432.554688 211.136719 C 421.519531 211.136719 410.195312 218.367188 407.007812 228.292969 C 405.746094 232.457031 406.742188 237.328125 410.082031 243.175781 L 410.410156 243.757812 C 416.757812 255.203125 420.6875 262.289062 428.921875 262.296875 C 432.449219 262.296875 436.769531 260.992188 442.40625 258.171875 C 447.191406 255.882812 458.355469 249.394531 459.285156 238.261719 C 460.5625 225.398438 449.105469 213.976562 438.023438 211.761719 C 438.023438 211.761719 438.011719 211.761719 438.011719 211.761719 L 437.871094 211.734375 C 436.136719 211.335938 434.359375 211.144531 432.574219 211.144531 Z M 432.554688 211.136719 " fill-opacity="1" fill-rule="nonzero"/><path fill="#e5b78a" d="M 612.800781 417.042969 C 625.121094 455.453125 621.460938 497.777344 608.515625 535.679688 C 602.269531 554.738281 591.707031 574.875 570.460938 579.523438 C 561.308594 581.917969 549.648438 580.390625 544.734375 571.382812 C 541.324219 566.011719 541.367188 557.980469 538.875 554.15625 C 536 549.414062 529.257812 550.464844 524.070312 551.21875 C 504.425781 554.667969 484.492188 556.765625 464.550781 556.980469 C 448.878906 556.96875 447.65625 566.378906 439.734375 577.136719 C 433.308594 585.8125 423.109375 592.015625 412.050781 590.796875 C 403.195312 590.03125 395.835938 583.210938 393.507812 574.761719 C 391.261719 568.855469 392.476562 560.386719 386.03125 557.273438 C 382.113281 555.433594 375.582031 555.722656 369.160156 555.40625 C 363.796875 555.328125 357.425781 553.953125 352.738281 556.972656 C 349.570312 559.007812 348.453125 562.957031 347.621094 566.675781 C 346.875 570.125 346.070312 573.679688 344.542969 576.886719 C 339.253906 588.851562 327.296875 591.601562 316.964844 583.777344 C 309.257812 578.074219 303.75 569.160156 299.863281 560.167969 C 283.371094 520.832031 289.5625 477.734375 286.070312 436.378906 C 285.28125 428.578125 281.480469 422.777344 273.726562 420.265625 C 270.207031 419 266.289062 418.167969 262.511719 417.15625 C 250.1875 414.15625 238.648438 408.5 228.855469 400.421875 C 196.519531 374.996094 187.328125 330.710938 193.8125 291.382812 C 194.714844 282.894531 193.042969 275.640625 195.027344 267.382812 C 196.457031 261.773438 199.296875 256.542969 202.269531 251.601562 C 210.621094 237.949219 223.574219 226.84375 237.570312 218.992188 C 253.117188 210.484375 269.859375 207.132812 288.238281 204.679688 C 322.316406 199.359375 358.578125 202.6875 389.140625 219.230469 C 421.761719 236.441406 445.226562 267.800781 456.6875 302.503906 C 458.355469 307.511719 459.773438 312.613281 460.980469 317.757812 C 462.328125 324.003906 464.425781 330.980469 471.234375 332.75 C 473.777344 333.492188 476.277344 333.695312 479.160156 333.8125 C 535.164062 334.359375 595.429688 360.832031 612.761719 416.890625 L 612.800781 417.023438 Z M 612.800781 417.042969 " fill-opacity="1" fill-rule="nonzero"/><path fill="#754c29" d="M 414.839844 592.675781 C 413.847656 592.675781 412.847656 592.621094 411.855469 592.511719 C 402.695312 591.71875 394.460938 584.644531 391.855469 575.289062 C 391.113281 573.304688 390.730469 571.117188 390.363281 569 C 389.578125 564.484375 388.898438 560.574219 385.273438 558.828125 C 382.550781 557.550781 378.046875 557.417969 373.277344 557.285156 C 371.886719 557.246094 370.476562 557.203125 369.074219 557.132812 C 367.894531 557.121094 366.597656 557.03125 365.339844 556.953125 C 361.160156 556.683594 356.832031 556.398438 353.679688 558.429688 C 351.058594 560.117188 350.085938 563.617188 349.320312 567.050781 C 348.496094 570.890625 347.683594 574.347656 346.113281 577.628906 C 343.40625 583.75 338.84375 587.9375 333.289062 589.378906 C 327.621094 590.851562 321.449219 589.351562 315.921875 585.160156 C 308.957031 580.003906 303.015625 571.820312 298.277344 560.855469 C 286.585938 532.964844 286.160156 502.914062 285.746094 473.847656 C 285.570312 461.554688 285.390625 448.839844 284.351562 436.527344 C 283.585938 428.988281 279.835938 424.066406 273.199219 421.917969 C 270.699219 421.019531 267.964844 420.332031 265.316406 419.667969 C 264.234375 419.398438 263.144531 419.117188 262.074219 418.835938 C 249.445312 415.765625 237.570312 409.851562 227.757812 401.761719 C 212.394531 389.675781 201.097656 372.316406 195.117188 351.59375 C 189.714844 332.875 188.675781 311.96875 192.097656 291.148438 C 192.453125 287.761719 192.390625 284.503906 192.320312 281.355469 C 192.230469 276.773438 192.132812 272.03125 193.347656 266.972656 C 194.867188 261.011719 197.820312 255.632812 200.785156 250.703125 C 206.347656 241.613281 217.09375 228.480469 236.722656 217.480469 C 252.136719 209.046875 268.371094 205.578125 288.007812 202.960938 C 325.386719 197.121094 361.609375 202.355469 389.96875 217.703125 C 421.160156 234.164062 446.085938 264.878906 458.335938 301.960938 C 459.953125 306.832031 461.410156 312.019531 462.667969 317.363281 C 464.230469 324.609375 466.355469 329.6875 471.671875 331.078125 C 473.984375 331.75 476.277344 331.964844 479.234375 332.089844 C 508.757812 332.382812 537.929688 339.824219 561.320312 353.039062 C 587.886719 368.050781 606.253906 389.960938 614.417969 416.390625 L 614.453125 416.496094 C 614.453125 416.496094 614.453125 416.503906 614.453125 416.507812 C 625.882812 452.140625 624.355469 494.660156 610.15625 536.234375 C 601.519531 562.574219 588.660156 577.296875 570.863281 581.203125 C 560.960938 583.785156 548.601562 582.015625 543.234375 572.257812 C 541.261719 569.125 540.378906 565.269531 539.601562 561.867188 C 538.984375 559.160156 538.402344 556.605469 537.414062 555.09375 C 535.144531 551.34375 529.242188 552.207031 524.507812 552.898438 L 524.320312 552.925781 C 503.664062 556.558594 483.546875 558.507812 464.5625 558.710938 L 464.535156 558.710938 C 453.363281 558.710938 450.34375 563.628906 445.773438 571.078125 C 444.449219 573.234375 442.949219 575.679688 441.121094 578.15625 C 434.273438 587.402344 424.625 592.675781 414.832031 592.675781 Z M 361.007812 553.289062 C 362.554688 553.289062 364.089844 553.390625 365.570312 553.484375 C 366.839844 553.566406 368.035156 553.640625 369.1875 553.664062 C 370.628906 553.734375 372.011719 553.773438 373.378906 553.816406 C 378.519531 553.960938 383.378906 554.105469 386.773438 555.695312 C 392.023438 558.238281 392.960938 563.644531 393.789062 568.410156 C 394.148438 570.488281 394.488281 572.453125 395.132812 574.144531 C 395.15625 574.195312 395.167969 574.25 395.183594 574.296875 C 397.390625 582.3125 404.382812 588.386719 412.195312 589.058594 C 421.785156 590.128906 431.539062 585.277344 438.335938 576.101562 C 440.074219 573.75 441.46875 571.464844 442.824219 569.265625 C 447.441406 561.742188 451.425781 555.246094 464.523438 555.246094 L 464.550781 555.246094 C 483.316406 555.042969 503.253906 553.113281 523.769531 549.511719 L 524.007812 549.476562 C 529.457031 548.679688 536.921875 547.589844 540.359375 553.261719 C 541.652344 555.246094 542.304688 558.089844 542.992188 561.101562 C 543.746094 564.40625 544.523438 567.820312 546.199219 570.460938 C 546.21875 570.496094 546.242188 570.523438 546.253906 570.558594 C 549.46875 576.441406 558.058594 580.980469 570.015625 577.851562 C 570.035156 577.851562 570.0625 577.835938 570.085938 577.835938 C 586.597656 574.222656 598.628906 560.257812 606.863281 535.144531 C 620.828125 494.257812 622.347656 452.511719 611.148438 417.585938 L 611.105469 417.453125 C 603.191406 391.847656 585.386719 370.632812 559.605469 356.0625 C 536.722656 343.132812 508.140625 335.851562 479.136719 335.566406 C 475.859375 335.429688 473.339844 335.191406 470.742188 334.4375 C 463.339844 332.515625 460.855469 325.46875 459.277344 318.140625 C 458.058594 312.925781 456.625 307.847656 455.035156 303.066406 C 443.066406 266.820312 418.75 236.832031 388.328125 220.777344 C 360.617188 205.785156 325.171875 200.683594 288.5 206.410156 C 269.207031 208.976562 253.324219 212.359375 238.398438 220.527344 C 227.941406 226.390625 213.421875 236.707031 203.742188 252.515625 C 200.921875 257.207031 198.109375 262.316406 196.699219 267.820312 C 195.597656 272.421875 195.679688 276.730469 195.777344 281.292969 C 195.847656 284.566406 195.917969 287.949219 195.527344 291.570312 C 195.527344 291.605469 195.519531 291.640625 195.511719 291.667969 C 192.160156 312.003906 193.171875 332.394531 198.4375 350.636719 C 204.214844 370.660156 215.101562 387.40625 229.925781 399.066406 C 239.363281 406.855469 250.761719 412.523438 262.921875 415.480469 C 264.019531 415.773438 265.089844 416.042969 266.15625 416.308594 C 268.886719 416.996094 271.710938 417.703125 274.316406 418.640625 C 282.21875 421.195312 286.898438 427.28125 287.808594 436.214844 C 288.863281 448.671875 289.042969 461.449219 289.21875 473.804688 C 289.625 502.539062 290.042969 532.25 301.472656 559.5 C 305.957031 569.882812 311.527344 577.585938 318.003906 582.382812 C 322.683594 585.921875 327.800781 587.214844 332.421875 586.019531 C 336.925781 584.855469 340.667969 581.363281 342.960938 576.183594 C 344.390625 573.195312 345.148438 569.945312 345.933594 566.308594 C 346.820312 562.332031 348.078125 557.902344 351.804688 555.507812 C 354.582031 553.71875 357.8125 553.289062 361.011719 553.289062 Z M 361.007812 553.289062 " fill-opacity="1" fill-rule="nonzero"/><path fill="#e5b78a" d="M 358.859375 202.128906 C 352.8125 201.417969 346.695312 201.253906 340.773438 199.726562 C 338.007812 199.503906 336.253906 196.789062 337.101562 194.160156 C 337.320312 188.351562 342.390625 183.582031 347.925781 182.476562 C 353.730469 181.136719 359.980469 184.261719 362.699219 189.488281 C 365.195312 194.214844 367.597656 203.960938 358.859375 202.128906 Z M 358.859375 202.128906 " fill-opacity="1" fill-rule="nonzero"/><path fill="#754c29" d="M 360.828125 204.085938 C 360.160156 204.085938 359.417969 204.007812 358.582031 203.839844 C 356.917969 203.648438 355.207031 203.496094 353.554688 203.339844 C 349.257812 202.953125 344.808594 202.542969 340.46875 201.441406 C 338.703125 201.253906 337.132812 200.308594 336.148438 198.84375 C 335.167969 197.378906 334.886719 195.574219 335.363281 193.867188 C 335.726562 187.710938 340.933594 182.109375 347.570312 180.777344 C 354.035156 179.285156 361.0625 182.609375 364.230469 188.691406 C 365.957031 191.964844 368.171875 198.460938 365.5 202.003906 C 364.726562 203.023438 363.324219 204.085938 360.8125 204.085938 Z M 350.652344 183.90625 C 349.871094 183.90625 349.085938 183.992188 348.320312 184.171875 C 343.792969 185.082031 339.039062 189.085938 338.84375 194.230469 C 338.84375 194.386719 338.808594 194.539062 338.757812 194.695312 C 338.515625 195.457031 338.621094 196.269531 339.050781 196.914062 C 339.476562 197.554688 340.140625 197.933594 340.917969 197.996094 C 341.015625 198.003906 341.121094 198.023438 341.210938 198.046875 C 345.320312 199.109375 349.675781 199.503906 353.875 199.886719 C 355.578125 200.039062 357.332031 200.199219 359.0625 200.398438 C 359.117188 200.398438 359.167969 200.414062 359.214844 200.425781 C 360.453125 200.683594 362.0625 200.808594 362.742188 199.914062 C 363.972656 198.28125 362.921875 193.625 361.167969 190.300781 C 359.132812 186.394531 354.882812 183.90625 350.648438 183.90625 Z M 350.652344 183.90625 " fill-opacity="1" fill-rule="nonzero"/><path fill="#cb9764" d="M 265.179688 273.761719 C 267.421875 288.34375 266.226562 303.90625 262.011719 317.855469 C 256.785156 335.519531 244.328125 352.128906 225.71875 354.140625 C 212.046875 355.722656 199.679688 347.394531 193.617188 335.1875 C 187.363281 323.03125 186.035156 308.457031 186.902344 294.855469 C 188.847656 271.671875 196.472656 245.992188 218.199219 236.304688 C 243.488281 226.550781 261.984375 249.878906 265.164062 273.609375 L 265.183594 273.753906 Z M 265.179688 273.761719 " fill-opacity="1" fill-rule="nonzero"/><g clip-path="url(#62c243b030)"><path fill="#754c29" d="M 222.359375 356.070312 C 209.902344 356.070312 198.261719 348.46875 192.054688 335.957031 C 186.4375 325.039062 184.113281 311.164062 185.160156 294.742188 C 186.972656 273.109375 194.054688 245.160156 217.484375 234.71875 C 217.511719 234.707031 217.539062 234.699219 217.566406 234.6875 C 227.203125 230.964844 236.703125 231.609375 245.042969 236.546875 C 256.367188 243.25 264.726562 257.359375 266.871094 273.378906 L 266.886719 273.476562 C 266.886719 273.476562 266.886719 273.484375 266.886719 273.492188 C 269.136719 288.109375 267.992188 304.035156 263.664062 318.347656 C 258.726562 335.035156 246.214844 353.65625 225.890625 355.855469 C 224.703125 355.992188 223.523438 356.054688 222.351562 356.054688 Z M 218.859375 237.90625 C 197.011719 247.671875 190.363281 274.335938 188.625 295 C 187.617188 310.753906 189.8125 324.019531 195.152344 334.394531 C 201.304688 346.777344 213.21875 353.84375 225.511719 352.417969 C 244.144531 350.398438 255.722656 332.984375 260.347656 317.363281 C 264.53125 303.53125 265.636719 288.148438 263.464844 274.03125 L 263.441406 273.894531 C 261.457031 259.089844 253.546875 245.617188 243.273438 239.535156 C 235.785156 235.101562 227.570312 234.5625 218.859375 237.914062 Z M 218.859375 237.90625 " fill-opacity="1" fill-rule="nonzero"/></g><path fill="#cb9764" d="M 399.84375 292.542969 C 398.65625 289.550781 396.941406 284.324219 401.246094 283.101562 C 405.285156 282.671875 406.492188 287.164062 407.304688 290.230469 C 408.820312 295.042969 401.335938 297.394531 399.84375 292.542969 Z M 399.84375 292.542969 " fill-opacity="1" fill-rule="nonzero"/><path fill="#cb9764" d="M 415.992188 290.328125 C 413.144531 287.949219 412.570312 280.707031 417.195312 280.015625 C 423.867188 280.273438 423.851562 294.328125 415.992188 290.328125 Z M 415.992188 290.328125 " fill-opacity="1" fill-rule="nonzero"/><path fill="#cb9764" d="M 293.523438 382.050781 C 291.75 380.113281 289.28125 378.015625 289.730469 375.109375 C 291.292969 367.835938 299.5 374.851562 300.035156 379.007812 C 300.285156 382.328125 295.890625 384.394531 293.515625 382.050781 Z M 293.523438 382.050781 " fill-opacity="1" fill-rule="nonzero"/><path fill="#cb9764" d="M 310.519531 378.003906 C 308.074219 375.886719 304.394531 372.1875 307.386719 369.035156 C 310.914062 366.363281 316.449219 371.507812 317.054688 374.957031 C 317.296875 378.273438 312.910156 380.347656 310.519531 378.003906 Z M 310.519531 378.003906 " fill-opacity="1" fill-rule="nonzero"/><path fill="#cb9764" d="M 374.726562 471.882812 C 372.074219 468.980469 372.714844 460.75 377.84375 461.242188 C 383.832031 462.933594 381.894531 476.886719 374.726562 471.882812 Z M 374.726562 471.882812 " fill-opacity="1" fill-rule="nonzero"/><path fill="#cb9764" d="M 392.980469 471.332031 C 391.050781 469.292969 390.761719 463.136719 392.199219 460.753906 C 394.648438 456.660156 399.648438 460.476562 399.257812 464.28125 C 399.257812 466.53125 400.3125 469.210938 398.566406 471.054688 C 397.167969 472.660156 394.53125 472.789062 392.980469 471.339844 Z M 392.980469 471.332031 " fill-opacity="1" fill-rule="nonzero"/><path fill="#cb9764" d="M 526.207031 397.664062 C 523.902344 395.902344 524.320312 392.515625 523.527344 389.96875 C 522.980469 387.921875 522.925781 385.609375 524.429688 383.9375 C 526.277344 381.617188 529.679688 383.265625 530.632812 385.617188 C 531.5625 388.234375 531.695312 391.078125 532.324219 393.785156 C 533.011719 397.082031 528.902344 399.671875 526.214844 397.671875 Z M 526.207031 397.664062 " fill-opacity="1" fill-rule="nonzero"/><path fill="#cb9764" d="M 542.246094 399.539062 C 540.101562 397.285156 541.027344 393.703125 540.457031 390.863281 C 540.179688 388.796875 540.109375 386.429688 541.707031 384.847656 C 543.878906 382.339844 547.421875 384.429688 548.046875 387.207031 C 548.582031 390.253906 548.476562 393.402344 548.816406 396.480469 C 549.09375 399.832031 544.644531 401.871094 542.253906 399.539062 Z M 542.246094 399.539062 " fill-opacity="1" fill-rule="nonzero"/><path fill="#cb9764" d="M 501.46875 508.285156 C 501.226562 505.15625 500.335938 501.886719 501.050781 498.777344 C 502.09375 495.140625 506.585938 494.777344 508.078125 498.304688 C 508.765625 500.449219 509.863281 508.167969 508.558594 509.855469 C 506.738281 512.699219 501.90625 511.660156 501.46875 508.277344 Z M 501.46875 508.285156 " fill-opacity="1" fill-rule="nonzero"/><path fill="#cb9764" d="M 521.257812 508.078125 C 521.613281 503.871094 519.515625 494.523438 526.292969 495.300781 C 529.125 496.367188 529.410156 499.714844 529.167969 502.308594 C 528.8125 505.007812 529.867188 508.265625 528.0625 510.546875 C 525.894531 513.128906 521.230469 511.472656 521.25 508.070312 Z M 521.257812 508.078125 " fill-opacity="1" fill-rule="nonzero"/><path fill="#cb9764" d="M 340.703125 544 C 338.632812 537.449219 337.003906 530.738281 336.136719 523.921875 C 335.96875 521.144531 334.980469 518.257812 335.710938 515.523438 C 337.996094 509.652344 343.800781 513.832031 343.441406 518.683594 C 344.203125 526.496094 345.765625 534.214844 348.175781 541.691406 C 349.6875 546.488281 342.195312 548.859375 340.710938 544 Z M 340.703125 544 " fill-opacity="1" fill-rule="nonzero"/><path fill="#cb9764" d="M 394.980469 549.519531 C 389.898438 547.375 393.945312 542.101562 394.855469 538.53125 C 395.988281 534.453125 396.847656 530.28125 397.535156 526.101562 C 397.863281 522.867188 398.472656 517.578125 402.882812 518.09375 C 408.085938 520.089844 405.125 526.683594 404.757812 530.746094 C 403.445312 535.285156 401.917969 551.921875 394.980469 549.519531 Z M 394.980469 549.519531 " fill-opacity="1" fill-rule="nonzero"/><path fill="#cb9764" d="M 541.183594 542.703125 C 535.753906 541.941406 538.332031 535.742188 538.464844 532.113281 C 538.476562 529.042969 539.261719 524.25 543.324219 524.691406 C 546.933594 525.671875 546.769531 530.007812 546.28125 532.980469 C 545.636719 536.492188 546.359375 542.972656 541.183594 542.703125 Z M 541.183594 542.703125 " fill-opacity="1" fill-rule="nonzero"/><path fill="#cb9764" d="M 412.578125 589.128906 C 407.738281 588.511719 395.070312 583.957031 398.550781 577.449219 C 400.132812 575.101562 403.417969 572.921875 406.070312 575.0625 C 406.910156 574.789062 407.902344 574.902344 408.695312 575.234375 C 409.339844 575.503906 409.945312 575.902344 410.417969 576.414062 C 411.179688 576.152344 412.019531 576.074219 412.792969 576.269531 C 413.097656 576.34375 413.382812 576.441406 413.652344 576.554688 C 415.402344 575.84375 417.457031 576.441406 418.714844 577.78125 C 430.324219 573.570312 429.582031 592.15625 412.582031 589.128906 Z M 412.578125 589.128906 " fill-opacity="1" fill-rule="nonzero"/><path fill="#cb9764" d="M 321.433594 584.203125 C 317.378906 582.210938 314.476562 576.386719 319.753906 573.972656 C 321.171875 571.632812 324.003906 571.605469 326.351562 571.054688 C 329.363281 570.339844 332.316406 569.425781 335.273438 568.515625 C 351.617188 563.96875 338.121094 595.273438 321.433594 584.203125 Z M 321.433594 584.203125 " fill-opacity="1" fill-rule="nonzero"/><path fill="#cb9764" d="M 566.792969 577.914062 C 561.890625 577.949219 556.65625 577.496094 552.546875 574.566406 C 548.371094 575.992188 545.554688 570.710938 547.238281 567.261719 C 546.617188 564.316406 548.484375 561.109375 550.914062 559.519531 C 555.265625 557.246094 560.273438 559.902344 564.925781 559.589844 C 570.765625 559.570312 585.894531 558.550781 583.0625 568.078125 C 584.0625 571.464844 580.429688 574.082031 578.035156 575.84375 C 574.714844 577.949219 570.585938 577.824219 566.792969 577.914062 Z M 566.792969 577.914062 " fill-opacity="1" fill-rule="nonzero"/><path fill="#cb9764" d="M 583.667969 464.46875 C 581.578125 462.609375 581.542969 455.863281 581.894531 453.136719 C 583.632812 447.742188 589.566406 450.277344 589.566406 455.113281 C 589.742188 457.132812 589.886719 459.160156 590.082031 461.171875 C 590.457031 464.503906 586.152344 466.695312 583.667969 464.46875 Z M 583.667969 464.46875 " fill-opacity="1" fill-rule="nonzero"/><path fill="#cb9764" d="M 595.976562 462.929688 C 595.894531 458.9375 593.867188 450.976562 599.992188 450.90625 C 604.90625 452.28125 603.207031 458.515625 603.832031 462.339844 C 604.246094 467.410156 596.324219 468.023438 595.976562 462.929688 Z M 595.976562 462.929688 " fill-opacity="1" fill-rule="nonzero"/><path fill="#cb9764" d="M 356.578125 231.359375 C 355.214844 228.300781 353.300781 222.59375 358.027344 221.582031 C 361.957031 221.457031 362.945312 225.808594 363.945312 228.765625 C 365.652344 233.503906 358.25 236.148438 356.578125 231.359375 Z M 356.578125 231.359375 " fill-opacity="1" fill-rule="nonzero"/><path fill="#cb9764" d="M 368.101562 229.875 C 364.957031 227.8125 365.304688 220.964844 369.671875 220.777344 C 376.164062 221.566406 375.226562 233.285156 368.101562 229.875 Z M 368.101562 229.875 " fill-opacity="1" fill-rule="nonzero"/><path fill="#754c29" d="M 341.078125 283.039062 C 337.226562 279.425781 332.289062 277.570312 327.59375 275.351562 C 318.339844 271.75 319.769531 259.367188 330.640625 262.09375 C 337.914062 263.855469 343.632812 269.203125 348.925781 274.207031 C 352.230469 276.855469 351.5 283 346.65625 282.9375 C 345.84375 283.601562 344.820312 283.9375 343.792969 283.9375 C 342.835938 283.9375 341.871094 283.636719 341.070312 283.039062 Z M 341.078125 283.039062 " fill-opacity="1" fill-rule="nonzero"/><path fill="#754c29" d="M 341.023438 283 C 341.023438 283 341.058594 283.027344 341.078125 283.039062 C 341.078125 283.039062 341.09375 283.054688 341.097656 283.054688 C 341.097656 283.054688 341.058594 283.019531 341.03125 283 Z M 341.023438 283 " fill-opacity="1" fill-rule="nonzero"/><path fill="#754c29" d="M 340.945312 282.9375 C 340.945312 282.9375 340.988281 282.972656 341.03125 283 C 341.003906 282.980469 340.972656 282.957031 340.945312 282.9375 Z M 340.945312 282.9375 " fill-opacity="1" fill-rule="nonzero"/><path fill="#754c29" d="M 234.28125 254.222656 C 228.960938 253.410156 229.210938 260.464844 226.792969 263.574219 C 224.398438 268.363281 218.433594 272.429688 213.628906 268.230469 C 209.921875 265.570312 210.15625 260.558594 210.527344 256.492188 C 210.984375 252.148438 206.296875 249.144531 203.441406 253.222656 C 200.070312 261.183594 203.074219 272.242188 211.128906 276.210938 C 210.117188 278.53125 209.769531 281.632812 209.199219 283.601562 C 205.5625 297.226562 206.316406 311.351562 205.652344 325.289062 C 205.492188 327.773438 207.21875 329.1875 209.09375 329.40625 C 211.089844 329.632812 213.242188 328.515625 213.476562 325.898438 C 214.121094 315.542969 213.511719 305.113281 214.996094 294.820312 C 215.511719 291.570312 216.179688 288.363281 216.921875 285.164062 C 217.226562 283.039062 218.363281 280.398438 218.539062 278.015625 C 224.230469 277.792969 229.703125 274.121094 232.71875 269.132812 C 234.730469 265.335938 241.042969 256.25 234.273438 254.214844 Z M 234.28125 254.222656 " fill-opacity="1" fill-rule="nonzero"/><path fill="#ffd6ca" d="M 357.957031 319.671875 C 335.773438 318.050781 333.238281 286.710938 356.792969 284.636719 C 381.324219 283.546875 382.613281 319.792969 357.957031 319.671875 Z M 357.957031 319.671875 " fill-opacity="1" fill-rule="nonzero"/><path fill="#e5b78a" d="M 436.433594 247.96875 C 432.71875 248.644531 430.207031 245.257812 427.707031 243.097656 C 424.984375 240.640625 422.195312 238.230469 419.285156 235.992188 C 418.027344 235.242188 417.480469 233.921875 416.730469 232.804688 C 413.957031 227.433594 422.234375 224.273438 425.867188 222.214844 C 430.0625 220.242188 434.867188 219.292969 439.460938 220.074219 C 447.664062 221.25 453.222656 229.203125 449.15625 236.976562 C 446.476562 241.765625 441.578125 246.082031 436.429688 247.96875 Z M 436.433594 247.96875 " fill-opacity="1" fill-rule="nonzero"/><path fill="#754c29" d="M 435.46875 249.789062 C 432.246094 249.789062 429.878906 247.527344 427.929688 245.660156 C 427.457031 245.207031 427.003906 244.777344 426.566406 244.394531 C 423.421875 241.558594 420.804688 239.34375 418.296875 237.40625 C 417.027344 236.613281 416.320312 235.441406 415.75 234.5 C 415.597656 234.25 415.453125 234 415.285156 233.753906 C 415.25 233.699219 415.214844 233.644531 415.179688 233.582031 C 412.007812 227.433594 419.347656 223.636719 423.285156 221.601562 C 423.914062 221.277344 424.503906 220.972656 425.003906 220.6875 C 425.046875 220.664062 425.082031 220.644531 425.125 220.625 C 429.9375 218.367188 435.128906 217.5625 439.753906 218.347656 C 444.605469 219.042969 448.789062 221.90625 450.882812 226.011719 C 452.785156 229.722656 452.71875 233.902344 450.695312 237.765625 C 447.738281 243.0625 442.511719 247.574219 437.03125 249.585938 C 436.933594 249.621094 436.835938 249.648438 436.742188 249.664062 C 436.304688 249.738281 435.878906 249.78125 435.46875 249.78125 Z M 436.433594 247.96875 Z M 418.234375 231.921875 C 418.402344 232.179688 418.570312 232.445312 418.730469 232.714844 C 419.195312 233.476562 419.589844 234.144531 420.179688 234.492188 C 420.242188 234.527344 420.296875 234.566406 420.351562 234.609375 C 422.957031 236.613281 425.664062 238.898438 428.878906 241.808594 C 429.359375 242.214844 429.859375 242.695312 430.339844 243.160156 C 432.492188 245.222656 434.066406 246.5625 435.996094 246.285156 C 440.609375 244.542969 445.167969 240.570312 447.65625 236.128906 C 449.121094 233.332031 449.183594 230.285156 447.808594 227.605469 C 446.226562 224.511719 443.015625 222.339844 439.234375 221.796875 C 435.273438 221.117188 430.839844 221.816406 426.679688 223.753906 C 426.160156 224.046875 425.554688 224.359375 424.902344 224.699219 C 419.636719 227.417969 417.007812 229.390625 418.25 231.929688 Z M 418.234375 231.921875 " fill-opacity="1" fill-rule="nonzero"/><path fill="#fff7ed" d="M 399.917969 213.414062 C 402.882812 206.429688 410.828125 200.539062 418.480469 203.960938 C 425.269531 206.839844 429.65625 214.042969 430.457031 221.214844 C 458.300781 203.410156 480.492188 241.808594 452.085938 253.675781 C 461.160156 261.136719 469.429688 276.738281 459.125 286.40625 L 459.273438 286.273438 C 451.230469 294.660156 436.46875 293.367188 429.859375 283.875 C 418.625 317.347656 383.835938 290.570312 399.035156 265.785156 C 392.386719 266.292969 385.28125 265.703125 379.59375 261.914062 C 371.082031 256.707031 368.289062 245.011719 375.839844 237.703125 C 381.707031 231.542969 391.328125 230.792969 398.953125 233.8125 C 397.09375 227.160156 397.007812 219.769531 399.910156 213.414062 Z M 399.917969 213.414062 " fill-opacity="1" fill-rule="nonzero"/><path fill="#754c29" d="M 413.382812 301.300781 C 407.367188 301.300781 401.246094 297.679688 397.382812 291.695312 C 392.710938 284.457031 392.273438 275.664062 396.050781 267.660156 C 388.90625 267.800781 383.183594 266.375 378.636719 263.351562 C 373.75 260.367188 370.429688 255.257812 369.816406 249.726562 C 369.261719 244.722656 370.964844 240.023438 374.609375 236.476562 C 380.53125 230.277344 389.390625 229.363281 396.566406 231.207031 C 395.28125 224.566406 395.882812 218.089844 398.335938 212.703125 C 400.355469 207.964844 404.363281 203.9375 408.792969 202.203125 C 412.292969 200.828125 415.890625 200.882812 419.195312 202.363281 C 425.414062 205 430.164062 211.148438 431.753906 218.421875 C 440.207031 213.84375 449.007812 213.628906 456.230469 217.917969 C 463.304688 222.117188 467.527344 229.855469 466.980469 237.628906 C 466.6875 241.792969 464.722656 249.191406 455.203125 254.125 C 460.488281 259.234375 465.367188 267.085938 465.625 274.800781 C 465.785156 279.6875 464.035156 284.054688 460.5625 287.433594 C 460.550781 287.449219 460.535156 287.460938 460.527344 287.476562 C 456.371094 291.8125 450.34375 294.015625 444.003906 293.519531 C 438.699219 293.105469 433.898438 290.878906 430.433594 287.296875 C 425.878906 298.226562 419.046875 300.710938 415.203125 301.199219 C 414.597656 301.273438 413.984375 301.308594 413.382812 301.308594 Z M 399.042969 264.050781 C 399.648438 264.050781 400.210938 264.363281 400.523438 264.882812 C 400.863281 265.441406 400.863281 266.140625 400.523438 266.695312 C 395.90625 274.234375 395.820312 282.875 400.300781 289.820312 C 403.835938 295.296875 409.507812 298.40625 414.769531 297.75 C 420.5625 297.027344 425.339844 291.898438 428.21875 283.324219 C 428.429688 282.699219 428.96875 282.25 429.625 282.160156 C 430.277344 282.0625 430.921875 282.347656 431.296875 282.886719 C 434.179688 287.023438 438.90625 289.640625 444.28125 290.066406 C 449.445312 290.472656 454.34375 288.753906 457.765625 285.34375 C 457.820312 285.277344 457.882812 285.207031 457.945312 285.144531 C 460.875 282.394531 462.292969 278.953125 462.160156 274.921875 C 461.910156 267.3125 456.371094 259.4375 450.988281 255.015625 C 450.515625 254.625 450.289062 254.023438 450.378906 253.425781 C 450.46875 252.820312 450.863281 252.316406 451.425781 252.078125 C 458.777344 249.003906 463.078125 243.792969 463.527344 237.398438 C 463.972656 231.019531 460.335938 224.398438 454.46875 220.914062 C 447.773438 216.945312 439.363281 217.582031 431.402344 222.679688 C 430.894531 223.003906 430.261719 223.039062 429.71875 222.78125 C 429.179688 222.527344 428.8125 222.003906 428.742188 221.40625 C 427.957031 214.371094 423.566406 208 417.8125 205.554688 C 415.3125 204.4375 412.714844 204.402344 410.0625 205.445312 C 406.464844 206.855469 403.195312 210.171875 401.53125 214.09375 C 401.53125 214.105469 401.515625 214.121094 401.507812 214.132812 C 399.015625 219.605469 398.703125 226.425781 400.640625 233.347656 C 400.820312 233.976562 400.621094 234.664062 400.132812 235.101562 C 399.640625 235.546875 398.945312 235.671875 398.335938 235.429688 C 391.863281 232.867188 382.789062 232.945312 377.117188 238.90625 C 377.101562 238.917969 377.082031 238.941406 377.066406 238.953125 C 374.191406 241.738281 372.851562 245.429688 373.289062 249.351562 C 373.78125 253.828125 376.492188 257.972656 380.523438 260.433594 C 385.109375 263.480469 391.105469 264.65625 398.933594 264.058594 C 398.972656 264.058594 399.023438 264.058594 399.066406 264.058594 Z M 399.917969 213.414062 L 399.925781 213.414062 Z M 399.917969 213.414062 " fill-opacity="1" fill-rule="nonzero"/><path fill="#ffd6ca" d="M 444.871094 260.886719 C 444.078125 262.835938 443.058594 264.65625 441.808594 266.34375 C 439.925781 268.867188 437.566406 271.027344 434.871094 272.65625 C 429.277344 276.058594 422.367188 277.070312 416.027344 275.425781 C 409.910156 273.835938 404.527344 269.839844 401.25 264.441406 C 399.558594 261.648438 398.441406 258.527344 397.960938 255.300781 C 397.871094 254.195312 397.785156 253.085938 397.695312 251.980469 C 397.675781 249.816406 397.933594 247.691406 398.472656 245.597656 C 398.808594 244.597656 399.132812 243.597656 399.46875 242.597656 C 400.257812 240.648438 401.28125 238.828125 402.53125 237.144531 C 404.410156 234.617188 406.773438 232.457031 409.464844 230.828125 C 415.070312 227.425781 421.972656 226.414062 428.3125 228.058594 C 434.429688 229.648438 439.808594 233.644531 443.085938 239.042969 C 444.78125 241.835938 445.898438 244.957031 446.378906 248.183594 C 446.46875 249.289062 446.550781 250.398438 446.640625 251.503906 C 446.664062 253.667969 446.40625 255.792969 445.863281 257.886719 C 445.53125 258.886719 445.203125 259.886719 444.871094 260.886719 Z M 444.871094 260.886719 " fill-opacity="1" fill-rule="nonzero"/><path fill="#754c29" d="M 422.132812 277.941406 C 419.9375 277.941406 417.734375 277.660156 415.589844 277.105469 C 409.042969 275.40625 403.277344 271.117188 399.765625 265.34375 C 397.96875 262.386719 396.753906 259.003906 396.246094 255.554688 C 396.246094 255.515625 396.238281 255.480469 396.230469 255.4375 L 395.96875 252.121094 C 395.96875 252.078125 395.96875 252.042969 395.96875 252.003906 C 395.941406 249.699219 396.222656 247.402344 396.800781 245.164062 C 396.808594 245.132812 396.820312 245.089844 396.835938 245.054688 L 397.828125 242.054688 C 397.84375 242.023438 397.855469 241.988281 397.871094 241.953125 C 398.710938 239.878906 399.8125 237.914062 401.148438 236.117188 C 403.152344 233.421875 405.714844 231.082031 408.570312 229.347656 C 414.582031 225.699219 421.945312 224.613281 428.753906 226.382812 C 435.304688 228.085938 441.066406 232.375 444.578125 238.148438 C 446.378906 241.105469 447.59375 244.492188 448.101562 247.933594 C 448.101562 247.96875 448.105469 248.011719 448.113281 248.054688 L 448.378906 251.371094 C 448.378906 251.414062 448.378906 251.445312 448.378906 251.488281 C 448.398438 253.792969 448.121094 256.097656 447.542969 258.324219 C 447.539062 258.359375 447.523438 258.402344 447.507812 258.4375 L 446.515625 261.433594 C 446.503906 261.46875 446.488281 261.503906 446.476562 261.539062 C 445.636719 263.613281 444.53125 265.578125 443.199219 267.375 C 441.191406 270.070312 438.628906 272.40625 435.773438 274.144531 C 431.65625 276.648438 426.90625 277.941406 422.132812 277.941406 Z M 399.683594 255.105469 C 400.125 258.082031 401.183594 260.996094 402.730469 263.539062 C 405.777344 268.550781 410.785156 272.269531 416.464844 273.746094 C 422.375 275.28125 428.753906 274.34375 433.976562 271.171875 C 436.457031 269.667969 438.675781 267.640625 440.421875 265.300781 C 441.566406 263.753906 442.515625 262.066406 443.246094 260.28125 L 444.203125 257.386719 C 444.691406 255.488281 444.933594 253.535156 444.914062 251.570312 L 444.664062 248.371094 C 444.21875 245.402344 443.164062 242.488281 441.613281 239.941406 C 438.566406 234.929688 433.558594 231.207031 427.878906 229.730469 C 421.972656 228.195312 415.589844 229.132812 410.367188 232.304688 C 407.890625 233.8125 405.667969 235.835938 403.925781 238.175781 C 402.777344 239.722656 401.828125 241.410156 401.097656 243.195312 L 400.140625 246.089844 C 399.65625 247.992188 399.410156 249.949219 399.433594 251.90625 Z M 444.871094 260.886719 Z M 444.871094 260.886719 " fill-opacity="1" fill-rule="nonzero"/></svg>